<?xml version="1.0" encoding="UTF-8"?>
<svg xmlns="http://www.w3.org/2000/svg" version="1.1" viewBox="0 0 1231.8 1231.8">
  <defs>
    <style>
      .cls-1 {
        fill: #fefefe;
      }

      .cls-2 {
        fill: #e5f8fe;
      }
    </style>
  </defs>
  <!-- Generator: Adobe Illustrator 28.7.7, SVG Export Plug-In . SVG Version: 1.2.0 Build 194)  -->
  <g>
    <g id="Layer_1">
      <g>
        <path class="cls-1" d="M80.7,1228.6H0C0,820.5,0,412.5,0,4.4,0,.8.8,0,4.4,0c406.7,0,813.3,0,1220,0,3.6,0,4.4.8,4.4,4.4,0,350.5,0,701,0,1051.5-1.3-.5-1.2-1.7-1.3-2.8-2.5-17.3-2.5-35.5-17.6-48.3-4.2-3.5-5.1-9.6-9.7-13.2-2.6-2.1-4-5.7-7.1-7.5-1.9-1.2-1.6-3.1-1.7-5.1-.3-8-2.6-16.5-9-20.7-11.7-7.7-22.5-16.3-33.5-24.9-7.5-5.9-15.1-11.6-23-17-22.2-15.2-47.4-24.6-71.4-36.3-10.4-5.1-21.7-8.4-31.6-14.2-13.8-8-29.4-10-43.7-16.2-4.8-2.1-10.3-2.6-14.4-6-4-3.3-8.4-5.6-12.7-8.3-9.1-5.8-19.3-10.2-26.2-19-5.2-6.6-11.9-10.4-20.2-11.6-6.2-.9-11.1-3.9-14.3-9.3-2.5-4.3-6.1-7.1-10.5-9.4-2.8-1.4-6.1-2.7-7.2-6.5-1-3.5-2.2-7-6.8-7.4-1.4-.1-2.1-1.8-2.9-3-4.5-6.8-8.6-13.9-13.7-20.2-6-7.5-8-16-6.9-25,2.2-19,.4-38.3,4.8-57.3,2.2-9.3,2.2-19.3,4.1-28.8,1.2-6,1.7-12.6,8.5-15.6.5-.2,1.1-.8,1.3-1.3,2.2-6.6,8-10.1,12.9-14.1,3.1-2.5,4.9-5.4,5.8-9,1.7-7.4,4.1-14.3,9.8-19.8,3-2.8,5.7-6.1,7.8-9.6,8.2-13.7,18.2-26.3,25.1-40.7,3.8-7.9,7.9-15.9,6.2-25.5-1.1-6.2-.7-12.7.1-19,.8-6.5-1.2-11-6-15.1-6.1-5.2-13.1-5.3-20.3-4.4-3.2.4-4.2-.7-5.3-3.2-1.3-2.9-.6-5.7.3-8.3,1.6-4.4-.8-8.8.7-13.2,2.9-9.1,5.7-18.2,5.1-28.1-.3-4.5-.3-9.3.2-14.1.7-6,2.7-11.8,2-18.2-.7-6,0-12.5,1.4-18.4,1.6-6.9,2.1-13.5.2-20.4-.7-2.5-1.8-5.3-1.6-7.6.8-8.5.2-17,.3-25.5,0-5.2.5-11.5-3.7-15.3-2.7-2.6-3.5-5.2-4-8.3-.7-4.3-3-7.8-5.6-10.9-7.4-8.8-15.1-17.4-19.2-28.4-3.1-8.2-10.9-12-16.1-18.2-4.3-5.1-12.1-5.8-15.2-12.3-.2-.5-1-.7-1.5-1.1-5-4.2-11.2-7-15.5-12.2-1.1-1.3-2.8-2-4.4-2.9-3.6-2-7.2-3.9-10.8-5.8-12.1-6.5-23.8-13.9-37-18.3-.8-1.3-2-1-3.2-.9-2.2-.7-4.3-1.3-6.5-2-.5-1.4-1.5-2.1-3-1.9-2.6-.6-5.2-1.4-7.5-2.7-.6-1.6-1.7-2.3-3.4-1.9-.5,0-1-.2-1.4-.2-2.2-1.3-4.4-2.6-7.1-2.7-4-1-8-1.9-12.1-2.9-1.7-1.4-3.6-1.9-5.7-1.3-1.7.2-3.3,0-4.9-.7-.8-1.2-2-1-3.2-.8-.9,0-1.7-.1-2.6-.2-1.2-1.3-2.5-1.3-3.8-.2-2,.2-3.9.5-5.8-.5-2.2-2-4.5-1.7-6.8-.1-5.1.5-10.2,1-15.4.7-.7-.9-1.3-.8-1.9.1l-6.4.2c-1.5,0-3.2-.9-4.2,1.1-1.9.8-3.8.8-5.7,0-5.4-1-10.3,0-14.5,3.6-1.1,0-2.3,0-3.4,0-2,0-3.9.2-5.3,1.9-.6.3-1.3.5-1.9.8-3.8-.2-6.6,1.7-9.5,3.8-.5,0-1.1.2-1.6.3-1-.2-1.8-.1-2.3.9-.8.3-1.7.7-2.5,1-4.7,1.1-9.1,2.8-12.8,6-2.7,2.1-6,2.9-9.2,3.6-1-.2-1.8,0-2.3.9-.6.3-1.2.6-1.8.8-1.2,0-2.6-.2-3,1.4-.6.5-1.3.9-1.9,1.4-2.7,1.8-6.6,1.1-8.7,4.2-.5.3-.9.5-1.4.8-1.9-.2-3.5.2-4.3,2.2-.6.5-1.2,1-1.9,1.5-1,0-1.8.4-2,1.5-.6.5-1.2,1-1.7,1.5-1.1,0-1.8.2-2.1,1.4-.6.5-1.2,1-1.8,1.5-1,0-1.8.3-2,1.5-.6.5-1.2,1-1.8,1.4-1.7,0-2.7.7-3,2.3-4.9,4.9-9.8,9.9-14.7,14.8-1.2.2-1.6.9-1.5,2.1-.2.3-.4.5-.6.8-1.1.2-1.4,1-1.4,1.9-1.4,1.6-2.8,3.2-4.2,4.8-2,.6-2.3,2.2-2.5,3.9-.5.6-1,1.2-1.5,1.8-2.4.7-2.9,2.8-3.3,4.9-.8,1.8-1.8,3.5-3.4,4.7-1.1.3-1.4,1-1.4,2.1-.2.3-.3.5-.5.8-1.9.7-2.3,2.3-2.4,4,0,.3-.2.6-.5.8-1.2.2-1.6,1-1.5,2.1-.2.3-.3.5-.5.8-3.1,2.5-4.2,6.1-5.2,9.8-.8,2.4-1.8,4.7-3.6,6.5-1.2.4-1.3,1.4-1,2.5,0,1.4-.7,2.4-1.8,3.3-2.7,3.4-3.4,7.5-4.2,11.6-.6,1.2-1.2,2.5-1.7,3.7-1,.4-1.5,1-.5,1.9.3,1.9-.4,3.4-1.5,4.8-2.3,3.3-3,7.1-2.8,11.1-.3.8-.6,1.6-1,2.3-1,.5-1.1,1.4-1.3,2.4-2,10.4-5.2,20.5-6.3,31.2-1.1,11.2-5.2,21.8-6.3,33.1-1.3,13.5-.8,27-.4,40.5,0,.7,0,1.4-.1,2.1-.4.5-1,.9-1.1,1.4-1.6,10.7-3.4,21.4-5.7,32-.7,3.1-2.2,6.4-.5,9.7-.1.7-.3,1.3-.4,2-3.4,7-5.1,14.2-3.4,22-.2.7-.3,1.3-.5,2-.2.2-.7.3-.7.6-2.3,12.2-1.1,24.9-4.2,37-.3,1.1-.4,2.5.6,3.6.2,1,.1,2-.6,2.9-1.6,1.1-1.4,2.4-.5,3.7-.3,2.3-.4,4.6-1.4,6.8-.9.4-1.4,1-.4,1.9.6,4-.8,7.7-1.3,11.5-4.1.5-1,3.5-1.6,5.3-3.1,9-4.4,18.3-4.4,27.9,0,1.5-.5,3.2,1,4.4,0,.6,0,1.3,0,1.9-1.3,1.1-1.3,2.4-.3,3.7-.1.7-.3,1.3-.4,2-1.3.6-1.4,1.3,0,2,0,.6,0,1.2,0,1.8-1.4.7-1.2,1.4,0,2,.6.9.7,1.9,0,2.8-1.7,1-2.4,2.8-2,4.4,1.1,5.3-.7,10.6,0,15.9-.2.3-.3.5-.5.8-2.1.5-3.1,1.9-3.5,4-1,5.1-2,10.3-1.8,15.6.1,3.4-1.2,7,1,10.2,0,1.6,0,3.2,0,4.7-2.3,3.1-1.7,7-.8,9.9,1.1,3.5.5,9.2,6.7,9.4.1,1.1-.2,2-.9,2.9-2.2,2.3,0,2.4,1.5,2.9h0c-1,1.7-2.2,2.7-.7,5.4,1.4,2.7,2.5,6,2.8,9.4.7,7.5,2.3,14.9,5.8,21.7,0,.9,0,1.8,0,2.7-1.1,2.5-2.8,4.9-1,7.7,1,2.5-.4,5.1,0,7.6-2.3,3.2-1,5.3,2.1,6.8,1.2,1,2.2,2.1.8,3.7-2.1,2.6-.6,3.4,1.9,3.9h.2c0,.1,0,.4,0,.4-.3,4.1-.3,7.9,4.7,9.4.9.3,2.2,1.4,2.3,2.2.5,5.7,6.7,7.2,8.7,11.8.2.5,1,.9,1.5,1,2.9.2,2.4,1.6,1.5,3.5-.9,1.9-.9,3.5,2,2.7,1.4,0,2.7-.1,4,.6.7,1.5,2.1.9,3.3,1.1-.3,1.9-2.6,1.4-3.2,2.4-2.5,4.1,2.7,1.3,2.9,3.1-1.7,3.4-5.5,4.1-8,6.4-9.6,8.7-20.8,14.6-32.7,19.4-8,3.2-16,6.4-23.2,11.3-4.1,2.8-8.2,4.8-13,5.7-3.2.6-6,1.9-9,3.1-6.5,2.7-13.1,5.4-20.1,6.1-14.2,1.3-27,6.9-39.7,12.5-5.4,2.4-10.9,4.4-16.7,5.7-11.8,2.7-24.1,3.1-35.4,7.8-4.7,2-9.8,2.8-14.8,3.9-12.6,2.8-25.4,4.9-37,10.9-3.9,2-7.8,3-12,2.2-6.1-1.2-10.4,1.8-14.5,5.6-1.5,1.4-2.3,3.5-4.6,4.1-7.2,2.1-13,6.7-19.1,10.8-6.1,4.2-9.8,9.5-7.8,17.4.4,1.8.2,3.4-.8,5-3.7,6.3-6.9,12.9-11.5,18.7-9.5,12-16.1,26.1-26.4,37.6-4.3,4.8-6.5,10.6-6.3,17.2,0,.9,0,2-.4,2.8-4.6,10.6-7.4,21.8-11.6,32.4-6.6,17-12.6,34.1-17.8,51.6-.8,2.8-1.9,5.4-3.2,8-6.4,12.3-11.8,24.9-11.1,39.1.3,5.4-.4,10.1-2.4,15.1-9,22.7-12,46.8-17,70.5Z"/>
        <path d="M483.1,419.1c0-.7,0-1.4.1-2.1,1.6-1.4.9-3.3,1-5,.3-11.6-.6-23.3.5-34.9,1.5-14.6,6.7-28.5,7.7-43.2.6-8.3,5.1-15.8,5-24.2.3-.8.6-1.6,1-2.3,2-3.4,2.1-7.3,2.8-11.1,1.1-1.4,1.8-3,1.5-4.8.6-.5.8-1.2.5-1.9.6-1.2,1.2-2.5,1.7-3.7,2.6-3.4,3.1-7.6,4.2-11.6,1.1-.8,1.7-1.9,1.8-3.3.8-.6,1.2-1.4,1-2.5,1.8-1.9,2.8-4.1,3.6-6.5,2.6-2.8,4.2-6.1,5.2-9.8.2-.3.3-.5.5-.8,1-.4,1.5-1,1.5-2.1.3-.2.5-.4.5-.8,1.5-.9,2.2-2.3,2.4-4,.2-.3.3-.5.5-.8.9-.4,1.4-1,1.4-2.1,1.6-1.2,2.6-2.9,3.4-4.7,1.7-1.2,2.8-2.8,3.3-4.9.5-.6,1-1.2,1.5-1.8,1.6-.8,2.3-2.3,2.5-3.9,1.4-1.6,2.8-3.2,4.2-4.8.9-.3,1.5-.9,1.4-1.9.2-.3.4-.5.6-.8,1-.3,1.5-1,1.5-2.1,4.9-4.9,9.8-9.9,14.7-14.8,1.5-.1,2.4-1,3-2.3.6-.5,1.2-1,1.8-1.4,1,0,1.7-.5,2-1.5.6-.5,1.2-1,1.8-1.5,1,0,1.7-.4,2.1-1.4.6-.5,1.2-1,1.7-1.4,1.1,0,1.6-.6,2-1.5.6-.5,1.2-1,1.9-1.5,1.7-.2,3.2-.8,4.3-2.2.5-.3.9-.5,1.4-.8,2.9-1.5,7-.2,8.7-4.2.6-.5,1.3-.9,1.9-1.4,1.3.1,2.4-.2,3-1.4.6-.3,1.2-.6,1.8-.8,1.1.5,1.7,0,2.3-.9,3.3-.7,6.5-1.5,9.2-3.6,4.9-.6,9-3.1,12.8-6,.8-.3,1.7-.7,2.5-1,1.1.5,1.7-.1,2.3-.9.5,0,1.1-.2,1.6-.3,3.7,0,6.5-2,9.5-3.8.6-.3,1.3-.5,1.9-.8,2.1.2,3.8-.6,5.3-1.9,1.1,0,2.3,0,3.4,0,4.8-1.2,9.7-2.4,14.5-3.6,1.9.7,3.8.8,5.7,0,1.6.4,3.1.2,4.2-1.1,2.1,0,4.3-.1,6.4-.2.7.5,1.3.4,1.9-.1,5.2.3,10.3-.2,15.4-.7,2.3.6,4.5.4,6.8.1,1.9,1,3.8.7,5.8.5,1.2.6,2.5.7,3.8.2.9,0,1.7.1,2.6.2.9,1,1.9,1.5,3.2.8,1.6.6,3.2,1,4.9.7,1.8.8,3.6,1.9,5.7,1.3,4,1,8,1.9,12.1,2.9,2,1.8,4.2,3.1,7.1,2.7.5,0,1,.2,1.4.2.9,1,1.8,2.2,3.4,1.9,2.3,1.3,4.9,2.2,7.5,2.7.8.9,1.2,2.5,3,1.9,2.2.7,4.3,1.3,6.5,2,.7,1.4,1.9,1.5,3.2.9,13.2,4.4,24.9,11.8,37,18.3,3.6,1.9,7.2,3.8,10.8,5.8,1.5.8,3.3,1.6,4.4,2.9,4.3,5.2,10.5,8,15.5,12.2.5.4,1.3.6,1.5,1.1,3.1,6.5,10.9,7.3,15.2,12.3,5.2,6.2,13,10,16.1,18.2,4.1,11,11.8,19.6,19.2,28.4,2.6,3.1,4.9,6.6,5.6,10.9.5,3.1,1.3,5.8,4,8.3,4.1,3.9,3.7,10.1,3.7,15.3,0,8.5.5,17-.3,25.5-.2,2.4.9,5.2,1.6,7.6,2,6.9,1.4,13.5-.2,20.4-1.4,6-2.1,12.4-1.4,18.4.7,6.4-1.2,12.2-2,18.2-.6,4.8-.5,9.6-.2,14.1.6,10-2.2,19-5.1,28.1-1.4,4.4.9,8.8-.7,13.2-1,2.6-1.6,5.4-.3,8.3,1.1,2.6,2.2,3.7,5.3,3.2,7.2-1,14.2-.9,20.3,4.4,4.7,4.1,6.8,8.6,6,15.1-.8,6.2-1.2,12.8-.1,19,1.7,9.7-2.4,17.6-6.2,25.5-6.9,14.4-16.9,27-25.1,40.7-2.1,3.5-4.8,6.8-7.8,9.6-5.7,5.5-8.1,12.4-9.8,19.8-.9,3.6-2.7,6.6-5.8,9-5,4-10.7,7.4-12.9,14.1-.2.5-.8,1.1-1.3,1.3-6.8,3-7.3,9.6-8.5,15.6-2,9.5-2,19.5-4.1,28.8-4.4,19-2.6,38.3-4.8,57.3-1.1,9,.9,17.5,6.9,25,5.1,6.3,9.2,13.4,13.7,20.2.8,1.2,1.5,2.9,2.9,3,4.6.4,5.8,3.9,6.8,7.4,1.1,3.8,4.4,5,7.2,6.5,4.4,2.2,8,5,10.5,9.4,3.1,5.4,8.1,8.4,14.3,9.3,8.3,1.2,15,5.1,20.2,11.6,6.9,8.8,17.1,13.3,26.2,19,4.3,2.7,8.8,5,12.7,8.3,4.1,3.4,9.6,4,14.4,6,14.3,6.1,30,8.2,43.7,16.2,9.9,5.8,21.2,9.2,31.6,14.2,24,11.7,49.2,21.1,71.4,36.3,7.9,5.4,15.5,11.1,23,17,11,8.6,21.8,17.2,33.5,24.9,6.4,4.2,8.7,12.7,9,20.7,0,2-.2,3.9,1.7,5.1,3.1,1.9,4.5,5.5,7.1,7.5,4.6,3.6,5.6,9.7,9.7,13.2,15.1,12.8,15.1,31,17.6,48.3.2,1.1,0,2.3,1.3,2.8v98.8c-4.4,7.9-5.5,16.6-4.5,25.2,2,16.3-.1,32.4-.3,48.6H80.7c5-23.7,7.9-47.8,17-70.5,2-5,2.7-9.7,2.4-15.1-.7-14.2,4.7-26.8,11.1-39.1,1.3-2.6,2.4-5.2,3.2-8,5.2-17.5,11.1-34.6,17.8-51.6,4.2-10.7,7-21.9,11.6-32.4.4-.8.5-1.9.4-2.8-.2-6.6,2-12.4,6.3-17.2,10.3-11.5,16.9-25.5,26.4-37.6,4.6-5.8,7.8-12.4,11.5-18.7,1-1.6,1.2-3.3.8-5-2-7.9,1.7-13.2,7.8-17.4,6.1-4.1,11.9-8.7,19.1-10.8,2.2-.6,3.1-2.7,4.6-4.1,4.1-3.8,8.3-6.8,14.5-5.6,4.2.8,8.1-.2,12-2.2,11.6-5.9,24.4-8.1,37-10.9,5-1.1,10.1-2,14.8-3.9,11.4-4.8,23.7-5.1,35.4-7.8,5.8-1.3,11.2-3.3,16.7-5.7,12.7-5.6,25.5-11.2,39.7-12.5,7-.7,13.6-3.4,20.1-6.1,3-1.2,5.8-2.5,9-3.1,4.8-.9,8.9-2.9,13-5.7,7.1-4.9,15.2-8.1,23.2-11.3,11.8-4.8,23.1-10.7,32.7-19.4,2.6-2.3,6.4-3,8-6.4-.2-1.8-5.4.9-2.9-3.1.6-1,2.9-.5,3.2-2.4.7-1.4.7-2.8-.3-4.5-1.2,1.3-2.1,2.4-3,3.4-1.3-.7-2.6-.7-4-.6-1-1.7-.3-3.4.2-5,.3-1,.3-2.2-.9-2.1-4.2.1-4.7-3.7-6.6-6-2.7-3.2-3.9-7.9-8.3-9.3-2.3-.7-2.9-1.9-3.5-3.8-.5-1.5-.2-3.2-1.6-4.4v-.3s-.2-.1-.2-.1c-.6-1.3-1.2-2.6-1.9-3.9,1.4-1.6.5-2.7-.8-3.7-.7-1.3,1.5-3.3.5-3.3-3.2.1-1.8-2.3-2.6-3.5-.4-2.5,1-5.1,0-7.6,1.6-1.7,3.1-3.5,4.7-5.2.6-.7,1.6-1.2.8-2.3-.2-.3-.7-.7-1-.6-.9.2-1,1-1.1,1.8,0,.6-.2,1.2-1,1.3-1.2-.6-.7-2-1.4-2.8,0-.9,0-1.8,0-2.7,1.5-1.7,7-3.6-.2-4.9-.4,0-1-1-1-1.5,0-5.3-3.1-9.8-3.4-15.1-.4-5-2.1-10-3.2-15,0,0,0,0,0,0-.5-1-1-1.9-1.5-2.9.7-.8,1.1-1.8.9-2.9.6-2.3.5-4.1-1.9-5.6-5.3-3.3-3.2-9-4-13.7,0-1.6,0-3.2,0-4.7.1-.9.4-1.9.3-2.8-.5-9.3-.1-18.4,4-27,.2-.3.3-.5.5-.8,1.4-.7,2.3-2.1,2-3.4-1.1-5.6,1.1-11.2,0-16.9.7-.9.7-1.8,0-2.8,0-.7,0-1.3,0-2,0-.6,0-1.2,0-1.8,0-.7,0-1.3,0-2,.1-.7.3-1.3.4-2,.9-1.2.7-2.4.3-3.7,0-.6,0-1.3,0-1.9,1.1-3.7.2-7.5,1-11.3,1.8-8.7,2.7-17.5,4-26.3.5-3.8,1.9-7.6,1.3-11.5.5-.5.8-1.1.4-1.9,1-2.2,1.1-4.5,1.4-6.8.9-1.1.9-2.4.5-3.7.7-.9.8-1.9.6-2.9,2.2-7.9,3.1-16.1,3.4-24.3.2-5.6,1.6-11.2.9-16.9.2-.7.3-1.3.5-2,.6-7.4,1.8-14.7,3.4-22,.1-.7.3-1.3.4-2,1.9-9,4.2-18,5.4-27.1.7-5.3,2.8-10.5,1.9-16Z"/>
        <path class="cls-2" d="M1223.9,1228.6c.2-16.2,2.3-32.3.3-48.6-1-8.6,0-17.3,4.5-25.2,0,23-.1,46,.1,69,0,4.1-.9,5.7-4.9,4.8Z"/>
        <path class="cls-2" d="M497.5,309.8c0,8.4-4.4,15.9-5,24.2-1,14.7-6.2,28.6-7.7,43.2-1.2,11.6-.2,23.2-.5,34.9,0,1.7.6,3.6-1,5-.4-13.5-.9-27,.4-40.5,1.1-11.3,5.1-22,6.3-33.1,1.1-10.7,4.3-20.8,6.3-31.2.2-1,.2-1.9,1.3-2.4Z"/>
        <path class="cls-2" d="M456.9,690.7c1.1,5,2.8,9.9,3.2,15,.4,5.3,3.4,9.8,3.4,15.1,0,.5.6,1.4,1,1.5,7.2,1.3,1.8,3.2.2,4.9-3.5-6.8-5.1-14.2-5.8-21.7-.3-3.4-1.3-6.7-2.8-9.4-1.4-2.6-.3-3.7.7-5.3Z"/>
        <path class="cls-2" d="M468.8,760c1.4,1.1,1.1,2.9,1.6,4.4.6,1.9,1.3,3.1,3.5,3.8,4.4,1.4,5.6,6.1,8.3,9.3,1.9,2.3,2.4,6.1,6.6,6,1.3,0,1.3,1.1.9,2.1-.5,1.6-1.2,3.3-.2,5-3,.8-2.9-.8-2-2.7.9-1.9,1.4-3.3-1.5-3.5-.5,0-1.3-.5-1.5-1-2-4.6-8.2-6.1-8.7-11.8,0-.8-1.3-2-2.3-2.2-5-1.5-5.1-5.3-4.7-9.4Z"/>
        <path class="cls-2" d="M463,556.2c-1.3,8.8-2.2,17.6-4,26.3-.8,3.8,0,7.6-1,11.3-1.6-1.2-1-2.9-1-4.4,0-9.5,1.3-18.9,4.4-27.9.6-1.7-2.5-4.8,1.6-5.3Z"/>
        <path class="cls-2" d="M483.1,419.1c.9,5.5-1.2,10.7-1.9,16-1.2,9.1-3.5,18.1-5.4,27.1-1.8-3.3-.2-6.6.5-9.7,2.3-10.6,4.2-21.3,5.7-32,0-.5.7-.9,1.1-1.4Z"/>
        <path class="cls-2" d="M471.5,488.2c.6,5.7-.8,11.3-.9,16.9-.3,8.2-1.1,16.4-3.4,24.3-1-1.1-.9-2.5-.6-3.6,3.1-12.1,1.9-24.8,4.2-37,0-.2.5-.4.7-.6Z"/>
        <path class="cls-2" d="M454.6,631.1c-4.1,8.6-4.5,17.7-4,27,0,.9-.2,1.8-.3,2.8-2.2-3.2-.8-6.8-1-10.2-.2-5.2.8-10.4,1.8-15.6.4-2.1,1.4-3.5,3.5-4Z"/>
        <path class="cls-2" d="M450.4,665.6c.8,4.8-1.3,10.5,4,13.7,2.5,1.5,2.5,3.3,1.9,5.6-6.2-.2-5.6-5.9-6.7-9.4-.9-2.9-1.5-6.8.8-9.9Z"/>
        <path class="cls-2" d="M457.1,610c1,5.6-1.1,11.2,0,16.9.3,1.4-.6,2.7-2,3.4-.7-5.3,1.1-10.5,0-15.9-.3-1.7.3-3.4,2-4.4Z"/>
        <path class="cls-2" d="M475.4,464.2c-1.6,7.3-2.8,14.6-3.4,22-1.6-7.8,0-15,3.4-22Z"/>
        <path class="cls-2" d="M464.8,729.8c.7.8.2,2.3,1.4,2.8.8-.1.9-.7,1-1.3,0-.8.2-1.6,1.1-1.8.3,0,.8.3,1,.6.8,1.1-.2,1.6-.8,2.3-1.6,1.7-3.1,3.5-4.7,5.2-1.8-2.9,0-5.3,1-7.7Z"/>
        <path class="cls-2" d="M663.4,155.8c-4.8,1.2-9.7,2.4-14.5,3.6,4.2-3.7,9.1-4.7,14.5-3.6Z"/>
        <path class="cls-2" d="M622.4,168c-3.8,2.9-7.9,5.4-12.8,6,3.7-3.2,8.1-4.9,12.8-6Z"/>
        <path class="cls-2" d="M463.8,745.2c.8,1.2-.6,3.6,2.6,3.5,1,0-1.2,2-.5,3.3-3.1-1.5-4.4-3.6-2.1-6.8Z"/>
        <path class="cls-2" d="M509.2,274.3c-1.1,4-1.6,8.2-4.2,11.6.8-4.1,1.5-8.2,4.2-11.6Z"/>
        <path class="cls-2" d="M520.8,252.3c-1,3.6-2.7,6.9-5.2,9.8,1.1-3.6,2.2-7.2,5.2-9.8Z"/>
        <path class="cls-2" d="M591.3,182.3c-1.6,4-5.8,2.7-8.7,4.2,2.1-3.1,6-2.4,8.7-4.2Z"/>
        <path class="cls-2" d="M501.3,296.4c-.7,3.8-.8,7.6-2.8,11.1-.2-4,.5-7.7,2.8-11.1Z"/>
        <path class="cls-2" d="M638.3,162.1c-3,1.7-5.9,3.7-9.5,3.8,2.9-2,5.8-4,9.5-3.8Z"/>
        <path class="cls-2" d="M493.5,791.2c.9-1,1.8-2.1,3-3.4,1.1,1.7,1,3.1.3,4.5-1.2-.1-2.6.5-3.3-1.1Z"/>
        <path class="cls-2" d="M703.7,153.8c-2.3.3-4.5.4-6.8-.1,2.3-1.6,4.6-1.9,6.8.1Z"/>
        <path class="cls-2" d="M748.8,163.1c-2.9.4-5.1-.9-7.1-2.7,2.7,0,4.9,1.4,7.1,2.7Z"/>
        <path class="cls-2" d="M534.2,232.1c-.5,2-1.6,3.7-3.3,4.9.4-2.1.9-4.1,3.3-4.9Z"/>
        <path class="cls-2" d="M729.6,157.5c-2.2.6-3.9-.5-5.7-1.3,2.2-.6,4.1,0,5.7,1.3Z"/>
        <path class="cls-2" d="M466.7,755.7c.6,1.3,1.2,2.6,1.9,3.9-2.4-.4-4-1.2-1.9-3.9Z"/>
        <path class="cls-2" d="M645.5,159.5c-1.5,1.3-3.2,2.1-5.3,1.9,1.4-1.7,3.3-1.9,5.3-1.9Z"/>
        <path class="cls-2" d="M525.7,244.6c-.1,1.7-.8,3.1-2.4,4,0-1.8.4-3.4,2.4-4Z"/>
        <path class="cls-2" d="M673.3,154.6c-1.1,1.3-2.6,1.5-4.2,1.1,1-2,2.7-1.1,4.2-1.1Z"/>
        <path class="cls-2" d="M538.2,226.4c-.2,1.7-.9,3.1-2.5,3.9.2-1.7.5-3.3,2.5-3.9Z"/>
        <path class="cls-2" d="M713.2,154.4c-1.3.5-2.5.5-3.8-.2,1.3-1.1,2.6-1.1,3.8.2Z"/>
        <path class="cls-2" d="M581.3,187.3c-1.2,1.3-2.6,2-4.3,2.2.9-1.9,2.5-2.3,4.3-2.2Z"/>
        <path class="cls-2" d="M455.4,687.8c.5,1,1,1.9,1.5,2.9-1.5-.5-3.6-.6-1.5-2.9Z"/>
        <path class="cls-2" d="M457.9,595.6c.4,1.3.6,2.6-.3,3.7-1-1.3-1-2.6.3-3.7Z"/>
        <path class="cls-2" d="M466.7,532.3c.3,1.3.4,2.6-.5,3.7-.8-1.4-1-2.7.5-3.7Z"/>
        <path class="cls-2" d="M563.6,199.6c-.6,1.3-1.5,2.2-3,2.3.3-1.6,1.4-2.4,3-2.3Z"/>
        <path class="cls-2" d="M753.6,165.2c-1.6.2-2.5-.9-3.4-1.9,1.7-.4,2.8.3,3.4,1.9Z"/>
        <path class="cls-2" d="M764.1,169.9c-1.8.5-2.2-1-3-1.9,1.5-.1,2.5.6,3,1.9Z"/>
        <path class="cls-2" d="M773.8,172.8c-1.3.6-2.4.5-3.2-.9,1.2-.1,2.4-.4,3.2.9Z"/>
        <path class="cls-2" d="M596.2,179.4c-.6,1.3-1.7,1.6-3,1.4.4-1.7,1.7-1.5,3-1.4Z"/>
        <path class="cls-2" d="M719,155.5c-1.3.7-2.3.1-3.2-.8,1.2-.2,2.4-.4,3.2.8Z"/>
        <path class="cls-2" d="M464.7,542.8c.4.7.1,1.3-.4,1.9-.9-.9-.5-1.4.4-1.9Z"/>
        <path class="cls-2" d="M627.2,166.2c-.6.8-1.2,1.4-2.3.9.5-1,1.4-1.1,2.3-.9Z"/>
        <path class="cls-2" d="M681.5,154.3c-.6.5-1.2.6-1.9.1.6-.9,1.2-1,1.9-.1Z"/>
        <path class="cls-2" d="M457.2,601.3c0,.7,0,1.3,0,2-1.3-.7-1.2-1.4,0-2Z"/>
        <path class="cls-2" d="M457.1,605.2c0,.7,0,1.3,0,2-1.3-.6-1.5-1.3,0-2Z"/>
        <path class="cls-2" d="M600.3,177.7c-.5.8-1.2,1.4-2.3.9.5-1,1.3-1.1,2.3-.9Z"/>
        <path class="cls-2" d="M503.2,289.7c.3.7.1,1.4-.5,1.9-1-.9-.5-1.5.5-1.9Z"/>
        <path class="cls-2" d="M512,268.6c.2,1.1-.2,1.9-1,2.5-.3-1.1-.2-2,1-2.5Z"/>
        <path class="cls-2" d="M522.8,249.4c0,1.1-.5,1.7-1.5,2.1-.1-1.1.3-1.9,1.5-2.1Z"/>
        <path class="cls-2" d="M527.5,241.7c0,1-.4,1.7-1.4,2.1,0-1,.2-1.8,1.4-2.1Z"/>
        <path class="cls-2" d="M543.8,219.7c.1,1-.4,1.6-1.4,1.9,0-1,.3-1.7,1.4-1.9Z"/>
        <path class="cls-2" d="M545.9,216.8c0,1.1-.5,1.7-1.5,2.1,0-1.1.3-1.9,1.5-2.1Z"/>
        <path class="cls-2" d="M567.4,196.7c-.3.9-.9,1.5-2,1.5.2-1.1.9-1.5,2-1.5Z"/>
        <path class="cls-2" d="M571.3,193.9c-.4,1-1.1,1.4-2.1,1.4.3-1.1,1.1-1.5,2.1-1.4Z"/>
        <path class="cls-2" d="M575,190.9c-.3.9-.9,1.5-2,1.5.2-1.1.9-1.5,2-1.5Z"/>
      </g>
    </g>
  </g>
</svg>